<?xml version="1.0" encoding="UTF-8" standalone="no"?>
<!DOCTYPE svg PUBLIC "-//W3C//DTD SVG 1.1//EN" "http://www.w3.org/Graphics/SVG/1.1/DTD/svg11.dtd">
<svg width="100%" height="100%" viewBox="0 0 16 16" version="1.1" xmlns="http://www.w3.org/2000/svg" xmlns:xlink="http://www.w3.org/1999/xlink" xml:space="preserve" xmlns:serif="http://www.serif.com/" style="fill-rule:evenodd;clip-rule:evenodd;stroke-linejoin:round;stroke-miterlimit:2;">
    <g transform="matrix(1,0,0,1,-9880.06,-27.5119)">
        <g id="Artboard3" transform="matrix(1.59998,0,0,1.59998,-5785.63,258.929)">
            <rect x="9791.15" y="-144.637" width="10" height="10" style="fill:none;"/>
            <clipPath id="_clip1">
                <rect x="9791.15" y="-144.637" width="10" height="10"/>
            </clipPath>
            <g clip-path="url(#_clip1)">
                <g transform="matrix(0.699118,6.93896e-17,-6.93896e-17,0.699118,2945.49,-145.23)">
                    <path d="M9792.48,15.152L9791.85,15.152L9791.85,14.52L9805.52,0.848L9806.15,0.848L9806.15,1.48L9792.48,15.152Z"/>
                </g>
                <g transform="matrix(0.441401,0,0,0.441401,5473.66,-140.965)">
                    <path d="M9793.69,14.311L9791.66,14.335L9803.99,2.007L9803.99,4.009L9793.69,14.311Z"/>
                </g>
                <g transform="matrix(0.41185,0,0,0.41185,5757.73,-145.23)">
                    <path d="M9793.42,14.653L9793.42,12.507L9804.49,1.44L9806.63,1.44L9793.42,14.653Z"/>
                </g>
                <g transform="matrix(0.625006,0,0,0.625006,3676.71,-139.637)">
                    <path d="M9799,7.293L9799,8L9798.29,8L9799,7.293Z"/>
                </g>
                <g transform="matrix(0.625006,0,0,0.625006,3666.71,-149.637)">
                    <path d="M9799,8.707L9799,8L9799.71,8L9799,8.707Z"/>
                </g>
            </g>
        </g>
    </g>
</svg>
