<svg width="171" height="26" viewBox="0 0 171 26" fill="none" xmlns="http://www.w3.org/2000/svg">
<g clip-path="url(#clip0_340_19206)">
<path fill-rule="evenodd" clip-rule="evenodd" d="M42.2387 20.7439C37.886 20.7439 34.3523 17.2101 34.3523 12.8575C34.3523 8.50483 37.886 4.9711 42.2387 4.9711H50.1251V8.12565L42.2387 8.12565C39.6272 8.12565 37.5068 10.246 37.5068 12.8575C37.5068 15.469 39.6272 17.5893 42.2387 17.5893H50.1251V20.7439H42.2387Z" fill="black"/>
<path fill-rule="evenodd" clip-rule="evenodd" d="M42.2387 20.7439C37.886 20.7439 34.3523 17.2101 34.3523 12.8575C34.3523 8.50483 37.886 4.9711 42.2387 4.9711H50.1251V8.12565L42.2387 8.12565C39.6272 8.12565 37.5068 10.246 37.5068 12.8575C37.5068 15.469 39.6272 17.5893 42.2387 17.5893H50.1251V20.7439H42.2387Z" fill="#053086"/>
<path fill-rule="evenodd" clip-rule="evenodd" d="M72.2067 12.8575C72.2067 8.50483 75.7404 4.9711 80.093 4.9711C84.4457 4.9711 87.9794 8.50483 87.9794 12.8575V20.7439H84.8249V12.8575C84.8249 10.246 82.7045 8.12565 80.093 8.12565C77.4815 8.12565 75.3612 10.246 75.3612 12.8575V20.7439H72.2067V12.8575Z" fill="black"/>
<path fill-rule="evenodd" clip-rule="evenodd" d="M72.2067 12.8575C72.2067 8.50483 75.7404 4.9711 80.093 4.9711C84.4457 4.9711 87.9794 8.50483 87.9794 12.8575V20.7439H84.8249V12.8575C84.8249 10.246 82.7045 8.12565 80.093 8.12565C77.4815 8.12565 75.3612 10.246 75.3612 12.8575V20.7439H72.2067V12.8575Z" fill="#053086"/>
<path fill-rule="evenodd" clip-rule="evenodd" d="M97.4432 12.8575C97.4432 8.50483 100.977 4.97111 105.33 4.97111C109.682 4.97111 113.216 8.50483 113.216 12.8575V20.7439H110.061V12.8575C110.061 10.246 107.941 8.12566 105.33 8.12566C102.718 8.12566 100.598 10.246 100.598 12.8575V20.7439H97.4432V12.8575Z" fill="black"/>
<path fill-rule="evenodd" clip-rule="evenodd" d="M97.4432 12.8575C97.4432 8.50483 100.977 4.97111 105.33 4.97111C109.682 4.97111 113.216 8.50483 113.216 12.8575V20.7439H110.061V12.8575C110.061 10.246 107.941 8.12566 105.33 8.12566C102.718 8.12566 100.598 10.246 100.598 12.8575V20.7439H97.4432V12.8575Z" fill="#053086"/>
<path fill-rule="evenodd" clip-rule="evenodd" d="M121.346 20.7438C116.993 20.7438 116.369 17.21 116.369 12.8574V4.97101H119.524V12.8574C119.524 15.4689 119.898 17.2927 121.346 17.5892H130.565V20.7438H121.346Z" fill="black"/>
<path fill-rule="evenodd" clip-rule="evenodd" d="M121.346 20.7438C116.993 20.7438 116.369 17.21 116.369 12.8574V4.97101H119.524V12.8574C119.524 15.4689 119.898 17.2927 121.346 17.5892H130.565V20.7438H121.346Z" fill="#053086"/>
<path fill-rule="evenodd" clip-rule="evenodd" d="M147.916 4.97127C143.564 4.97127 140.03 8.505 140.03 12.8576V20.744H143.185V12.8576C143.185 10.2461 145.305 8.12582 147.916 8.12582L154.65 8.20043L154.759 5.04588L147.916 4.97127Z" fill="#053086"/>
<path fill-rule="evenodd" clip-rule="evenodd" d="M147.916 4.97127L154.759 5.04588L154.65 8.20043L147.916 8.12582C145.305 8.12582 143.185 10.2461 143.185 12.8576V20.744H140.03V12.8576C140.03 8.505 143.564 4.97127 147.916 4.97127Z" fill="#053086"/>
<path d="M65.8968 14.4346V11.2801H55.8446V14.4346H65.8968Z" fill="black"/>
<path d="M65.8968 14.4346V11.2801H55.8446V14.4346H65.8968Z" fill="#053086"/>
<path d="M84.8259 16.0115V12.857H74.7737V16.0115H84.8259Z" fill="black"/>
<path d="M84.8259 16.0115V12.857H74.7737V16.0115H84.8259Z" fill="#053086"/>
<path d="M94.2888 4.97111H91.1342V20.7439H94.2888V4.97111Z" fill="black"/>
<path d="M94.2888 4.97111H91.1342V20.7439H94.2888V4.97111Z" fill="#053086"/>
<path fill-rule="evenodd" clip-rule="evenodd" d="M170.424 4.97052V8.12547H165.765V20.7436H162.612V8.12547H157.88V4.97052H170.424Z" fill="black"/>
<path fill-rule="evenodd" clip-rule="evenodd" d="M170.424 4.97052V8.12547H165.765V20.7436H162.612V8.12547H157.88V4.97052H170.424Z" fill="#053086"/>
<path fill-rule="evenodd" clip-rule="evenodd" d="M151.071 15.2231L151.86 12.0686L141.608 12.0686V15.2231L151.071 15.2231Z" fill="black"/>
<path fill-rule="evenodd" clip-rule="evenodd" d="M151.071 15.2231L141.608 15.2231V12.0686L151.86 12.0686L151.071 15.2231Z" fill="#053086"/>
<path d="M136.875 4.9711H133.721V20.7439H136.875V4.9711Z" fill="black"/>
<path d="M136.875 4.9711H133.721V20.7439H136.875V4.9711Z" fill="#053086"/>
<path d="M56.4344 4.97111H53.2798V20.7439H56.4344V4.97111Z" fill="black"/>
<path d="M56.4344 4.97111H53.2798V20.7439H56.4344V4.97111Z" fill="#053086"/>
<path d="M69.0525 4.97111H65.898V20.7439H69.0525V4.97111Z" fill="black"/>
<path d="M69.0525 4.97111H65.898V20.7439H69.0525V4.97111Z" fill="#053086"/>
<path d="M16.005 25.6664C15.2307 25.8491 14.4298 25.9626 13.6089 26V14.2345C13.8489 14.4547 14.0908 14.6745 14.3325 14.892C14.6018 15.1347 14.8724 15.3766 15.1454 15.6172C15.4291 15.8666 15.7145 16.1151 16.005 16.3603V25.6664ZM11.2246 25.8929C10.4484 25.7865 9.69406 25.6118 8.96781 25.3747V10.1937C9.43216 10.5298 9.88501 10.8927 10.3309 11.2693C10.6314 11.5235 10.9288 11.7841 11.2246 12.0486V25.8929ZM20.9484 23.3085C20.1619 23.9158 19.304 24.4349 18.3893 24.8512V18.082C18.5058 18.1447 18.6245 18.2048 18.7459 18.2611C18.9243 18.3438 19.1088 18.4167 19.296 18.4817C19.4839 18.5455 19.6752 18.598 19.8669 18.6421C20.0588 18.6857 20.2508 18.7179 20.4416 18.7446C20.6118 18.7672 20.7807 18.784 20.9484 18.7974V23.3085ZM6.30482 24.1565C5.50393 23.674 4.75932 23.1077 4.08305 22.4697V8.50587C4.08614 8.50549 4.0892 8.50496 4.09229 8.50461C4.24723 8.48678 4.4047 8.47545 4.56149 8.47184C4.71855 8.46945 4.87588 8.47419 5.03323 8.48613C5.4596 8.51949 5.88536 8.61077 6.30482 8.74821V24.1565ZM22.9982 21.3359V18.5955C23.1127 18.5595 23.2259 18.52 23.337 18.4763C23.7039 18.3325 24.0512 18.15 24.3769 17.9408C24.7029 17.7317 25.007 17.4954 25.2913 17.2407C25.3002 17.2327 25.3089 17.2245 25.3178 17.2165C24.7984 18.7359 24.0056 20.1286 22.9982 21.3359ZM0.033065 12.0747C0.0587462 11.7131 0.168855 11.3616 0.364185 11.0563C0.365215 11.0547 0.366244 11.0531 0.367303 11.0515C0.711103 10.5166 1.14395 10.0711 1.62874 9.69897V19.3138C0.59111 17.4458 0 15.2955 0 13.0071C0 12.6936 0.011208 12.3826 0.033065 12.0747ZM25.8672 14.9691C25.8169 15.3019 25.6759 15.6155 25.453 15.8676C25.4518 15.8689 25.4507 15.8702 25.4495 15.8715C25.222 16.1284 24.9788 16.371 24.7211 16.5935C24.2068 17.0388 23.6314 17.4053 23.0153 17.6344C22.7075 17.7489 22.39 17.8277 22.0691 17.8666C21.9087 17.8861 21.7473 17.8953 21.5861 17.8945C21.5054 17.8938 21.4248 17.8915 21.3443 17.8858C21.3054 17.8841 21.2601 17.8796 21.2171 17.8762C21.1738 17.8724 21.1302 17.8693 21.0872 17.8649C20.9149 17.8484 20.7449 17.8282 20.578 17.8026C20.4118 17.7756 20.2479 17.7447 20.0884 17.7049C19.9292 17.6642 19.7729 17.6174 19.62 17.5616C19.4674 17.5043 19.3171 17.4411 19.1694 17.3685C18.8741 17.2231 18.587 17.0469 18.3054 16.8519C18.0241 16.6559 17.7482 16.4423 17.4759 16.2199C16.9314 15.7743 16.4009 15.2947 15.8739 14.8093C15.6104 14.5663 15.3482 14.3207 15.0866 14.0738C14.8245 13.8267 14.5653 13.58 14.306 13.3304L12.7495 11.8227C12.2267 11.3192 11.697 10.8172 11.1476 10.3281C10.5979 9.83947 10.0288 9.36271 9.4206 8.91998C8.81264 8.47804 8.16487 8.06779 7.45609 7.73841C7.10179 7.57443 6.73287 7.43038 6.34924 7.31827C6.15773 7.26164 5.96272 7.21269 5.76472 7.17354C5.56683 7.13429 5.36658 7.10185 5.16422 7.08149C4.96198 7.06078 4.75827 7.04934 4.55417 7.04739C4.34981 7.04663 4.14648 7.05616 3.94211 7.07408C3.52842 7.11352 3.12146 7.18857 2.72265 7.29709C2.52323 7.35127 2.32681 7.41643 2.13343 7.49042C1.93998 7.56434 1.75012 7.64886 1.56664 7.74623C1.34784 7.86107 1.13806 7.99416 0.940086 8.14345C2.87077 3.35792 7.56532 -0.0159755 13.0461 5.68942e-05C20.2332 0.0211196 26.0644 5.91342 26.0139 13.1004C26.0094 13.7352 25.9595 14.3591 25.8672 14.9691Z" fill="#053086"/>
</g>
<defs>
<clipPath id="clip0_340_19206">
<rect width="170.424" height="26" fill="white"/>
</clipPath>
</defs>
</svg>
