<?xml version="1.0" encoding="UTF-8" standalone="no"?>
<!DOCTYPE svg PUBLIC "-//W3C//DTD SVG 1.1//EN" "http://www.w3.org/Graphics/SVG/1.1/DTD/svg11.dtd">
<svg width="100%" height="100%" viewBox="0 0 1056 162" version="1.1" xmlns="http://www.w3.org/2000/svg" xmlns:xlink="http://www.w3.org/1999/xlink" xml:space="preserve" xmlns:serif="http://www.serif.com/" style="fill-rule:evenodd;clip-rule:evenodd;stroke-linejoin:round;stroke-miterlimit:2;">
    <path d="M1050.73,30.792L1050.73,50.332L1021.88,50.332L1021.88,128.482L1002.35,128.482L1002.35,50.332L973.04,50.332L973.04,30.792L1050.73,30.792ZM847.73,30.795L847.73,128.482L828.192,128.482L828.192,30.795L847.73,30.795ZM99.126,158.969C94.331,160.101 89.37,160.804 84.286,161.035L84.286,88.167C85.772,89.53 87.271,90.892 88.767,92.238C90.435,93.742 92.111,95.24 93.802,96.73C95.559,98.275 97.327,99.814 99.126,101.332L99.126,158.969ZM69.519,160.372C64.712,159.713 60.04,158.631 55.542,157.163L55.542,63.14C58.417,65.222 61.222,67.469 63.984,69.802C65.845,71.376 67.687,72.99 69.519,74.628L69.519,160.372ZM129.743,144.366C124.871,148.127 119.558,151.342 113.893,153.921L113.893,111.996C114.614,112.384 115.349,112.756 116.102,113.105C117.207,113.617 118.349,114.069 119.509,114.471C120.673,114.866 121.857,115.192 123.045,115.465C124.233,115.735 125.422,115.934 126.604,116.1C127.658,116.239 128.704,116.343 129.743,116.427L129.743,144.366ZM39.048,149.618C34.088,146.63 29.476,143.122 25.288,139.171L25.288,52.687C25.307,52.684 25.326,52.681 25.345,52.679C26.305,52.568 27.28,52.498 28.251,52.476C29.224,52.461 30.198,52.49 31.173,52.564C33.814,52.771 36.451,53.336 39.048,54.187L39.048,149.618ZM142.438,132.149L142.438,115.176C143.147,114.953 143.848,114.708 144.537,114.438C146.809,113.547 148.96,112.417 150.977,111.121C152.996,109.826 154.88,108.363 156.64,106.785C156.695,106.735 156.749,106.685 156.804,106.635C153.587,116.046 148.677,124.671 142.438,132.149ZM0.205,74.79C0.364,72.551 1.046,70.373 2.255,68.483C2.262,68.473 2.268,68.463 2.275,68.453C4.404,65.14 7.085,62.381 10.087,60.076L10.087,119.625C3.661,108.055 -0,94.738 -0,80.565C-0,78.623 0.069,76.697 0.205,74.79ZM160.207,92.716C159.895,94.777 159.022,96.72 157.641,98.281C157.634,98.289 157.627,98.297 157.62,98.305C156.211,99.896 154.705,101.399 153.109,102.777C149.923,105.535 146.36,107.804 142.544,109.224C140.638,109.933 138.671,110.421 136.684,110.662C135.69,110.782 134.691,110.839 133.692,110.834C133.193,110.83 132.693,110.816 132.194,110.781C131.954,110.77 131.673,110.742 131.407,110.721C131.139,110.697 130.869,110.678 130.602,110.651C129.535,110.549 128.482,110.424 127.449,110.265C126.419,110.098 125.404,109.907 124.416,109.66C123.43,109.408 122.462,109.118 121.515,108.773C120.57,108.418 119.639,108.027 118.725,107.576C116.896,106.676 115.118,105.585 113.373,104.377C111.631,103.163 109.922,101.841 108.236,100.463C104.864,97.703 101.578,94.733 98.314,91.727C96.682,90.221 95.058,88.7 93.438,87.171C91.814,85.641 90.209,84.113 88.604,82.567L78.963,73.229C75.725,70.11 72.445,67.002 69.042,63.972C65.637,60.946 62.113,57.993 58.346,55.251C54.58,52.514 50.569,49.973 46.179,47.933C43.984,46.918 41.7,46.026 39.324,45.331C38.137,44.98 36.93,44.677 35.703,44.435C34.478,44.192 33.238,43.991 31.984,43.865C30.732,43.736 29.47,43.666 28.206,43.654C26.94,43.649 25.681,43.708 24.415,43.819C21.853,44.063 19.332,44.528 16.862,45.2C15.627,45.536 14.411,45.939 13.213,46.397C12.015,46.855 10.839,47.379 9.703,47.982C8.348,48.693 7.048,49.517 5.822,50.442C17.78,20.803 46.855,-0.093 80.8,0.006C125.313,0.137 161.428,36.63 161.115,81.143C161.088,85.074 160.779,88.938 160.207,92.716ZM751.553,128.482C724.596,128.482 720.733,106.597 720.733,79.639L720.733,30.795L740.271,30.795L740.271,79.639C740.271,95.813 742.586,107.108 751.553,108.945L808.652,108.945L808.652,128.482L751.553,128.482ZM261.603,128.482C234.645,128.482 212.759,106.597 212.759,79.639C212.759,52.681 234.645,30.795 261.603,30.795L310.447,30.795L310.447,50.332L261.603,50.332C245.429,50.332 232.297,63.464 232.297,79.639C232.297,95.813 245.429,108.945 261.603,108.945L310.447,108.945L310.447,128.482L261.603,128.482ZM466.746,99.174L466.746,128.482L447.208,128.482L447.208,79.639C447.208,52.681 469.094,30.795 496.052,30.795C523.01,30.795 544.896,52.681 544.896,79.639L544.896,128.482L525.359,128.482L525.359,99.174L466.746,99.174ZM525.359,79.636C525.357,63.463 512.226,50.332 496.052,50.332C479.879,50.332 466.747,63.463 466.746,79.636L525.359,79.636ZM583.973,30.795L583.973,128.482L564.435,128.482L564.435,30.795L583.973,30.795ZM603.514,79.639C603.514,52.681 625.4,30.795 652.358,30.795C679.316,30.795 701.202,52.681 701.202,79.639L701.202,128.482L681.664,128.482L681.664,79.639C681.664,63.464 668.532,50.332 652.358,50.332C636.183,50.332 623.051,63.464 623.051,79.639L623.051,128.482L603.514,128.482L603.514,79.639ZM887.211,74.753L940.534,74.753L935.65,94.291L886.805,94.291L886.805,128.482L867.267,128.482L867.267,79.639C867.267,52.681 889.153,30.795 916.111,30.795L958.493,31.257L957.817,50.794L916.111,50.332C901.601,50.332 889.54,60.901 887.211,74.753ZM349.523,69.87L408.135,69.87L408.135,30.795L427.673,30.795L427.673,128.482L408.135,128.482L408.135,89.407L349.523,89.407L349.523,128.482L329.985,128.482L329.985,30.795L349.523,30.795L349.523,69.87Z" style="fill:rgb(5,48,134);"/>
</svg>
